# xmcd
#
# Track frame offsets:
#	150
#	20678
#	44247
#	62642
#	84817
#	104799
#	120168
#	146578
#	164195
#	182293
#
# Disc length: 2939
#
# Revision: 1
# Processed by: cddbd v1.5.1PL0 Copyright (c) Steve Scherf et al.
# Submitted via: ExactAudioCopy v0.95a5
# Normalized: r0:TRMNUM
#
DISCID=880b790a
DTITLE=Melanie Inabinet - New Beginnings
DYEAR=2000
DGENRE=Country Chritian
TTITLE0=Reaching
TTITLE1=Wind Beneath My Wings
TTITLE2=When He Was On The Cross
TTITLE3=Sweet Beulah Land
TTITLE4=Surely The Presence
TTITLE5=I Know A Man Who Can
TTITLE6=I Am Not Ashamed
TTITLE7=I Will Serve You
TTITLE8=My Tribute
TTITLE9=The Altar
EXTD=
EXTT0=
EXTT1=
EXTT2=
EXTT3=
EXTT4=
EXTT5=
EXTT6=
EXTT7=
EXTT8=
EXTT9=
PLAYORDER=
